<svg xmlns="http://www.w3.org/2000/svg" viewBox="0 0 921.6 921.6" width="316" height="316" fill="#800000"><path d="M460.8 144c175 0 316.8 141.8 316.8 316.8S635.8 777.6 460.8 777.6 144 635.8 144 460.8 285.8 144 460.8 144m0-7.2c-43.7 0-86.2 8.6-126.1 25.5-38.6 16.3-73.2 39.7-103 69.4s-53.1 64.4-69.4 103c-16.9 39.9-25.5 82.4-25.5 126.1s8.6 86.2 25.5 126.1c16.3 38.6 39.7 73.2 69.4 103s64.4 53.1 103 69.4c39.9 16.9 82.4 25.5 126.1 25.5s86.2-8.6 126.1-25.5c38.6-16.3 73.2-39.7 103-69.4s53.1-64.4 69.4-103c16.9-39.9 25.5-82.4 25.5-126.1s-8.6-86.2-25.5-126.1c-16.3-38.6-39.7-73.2-69.4-103s-64.4-53.1-103-69.4c-39.9-16.9-82.4-25.5-126.1-25.5z"/><path d="M460.8 18c244.6 0 442.8 198.2 442.8 442.8S705.4 903.6 460.8 903.6 18 705.4 18 460.8 216.2 18 460.8 18m0-7.2c-60.7 0-119.7 11.9-175.2 35.4-53.6 22.7-101.7 55.1-143 96.4-41.3 41.3-73.8 89.4-96.4 143C22.7 341.1 10.8 400 10.8 460.8c0 60.7 11.9 119.7 35.4 175.2 22.7 53.6 55.1 101.7 96.4 143s89.4 73.8 143 96.4c55.5 23.5 114.4 35.4 175.2 35.4 60.7 0 119.7-11.9 175.2-35.4 53.6-22.7 101.7-55.1 143-96.4 41.3-41.3 73.8-89.4 96.4-143 23.5-55.5 35.4-114.4 35.4-175.2 0-60.7-11.9-119.7-35.4-175.2-22.7-53.6-55.1-101.7-96.4-143s-89.4-73.8-143-96.4c-55.5-23.5-114.5-35.4-175.2-35.4z"/><path d="M460.8 3.6C713.3 3.6 918 208.3 918 460.8S713.3 918 460.8 918 3.6 713.3 3.6 460.8 208.3 3.6 460.8 3.6m0-3.6c-62.2 0-122.6 12.2-179.4 36.2C226.6 59.4 177.3 92.6 135 135c-42.3 42.3-75.5 91.6-98.8 146.5C12.2 338.2 0 398.6 0 460.8s12.2 122.6 36.2 179.4C59.4 695 92.6 744.3 135 786.6c42.3 42.3 91.6 75.5 146.5 98.8 56.8 24 117.2 36.2 179.4 36.2s122.6-12.2 179.4-36.2c54.9-23.2 104.2-56.4 146.5-98.8 42.3-42.3 75.5-91.6 98.8-146.5 24-56.8 36.2-117.2 36.2-179.4s-12.2-122.6-36.2-179.4c-23.4-54.7-56.6-104-99-146.3-42.3-42.4-91.6-75.6-146.4-98.8C583.4 12.2 523 0 460.8 0z"/><path d="M239.6 721c.8-2.6.9-3.7.1-4.4-.8-.7-2.1-.3-5.2 1.1l-65 31.7c-5.2 2.6-9.1 3.9-13.4.9-.7-.5-2-1.4-2.7-2.1-.7-.6-1.2-.7-1.6-.2-.6.6-.2 1.3.9 2.2 4.4 3.8 9.2 7.6 10.1 8.4 2.6 2.3 6 5.7 8.7 8 .9.8 1.6 1.1 2.1.5.4-.5.3-.9-.7-1.8l-1.3-1.1c-2.6-2.3-2.4-4-1.2-5.4.8-.9 2.9-2.5 5.5-3.8l14.5-7.5c.6-.3.9-.3 1.3 0l18.7 16.4c.4.3.5.8.3 1.3l-8.1 22.8c-.4 1.3-1.6 1.5-2.4 1.2-.9-.6-1.4-.8-1.8-.3-.5.6.5 1.5 1.9 2.8 6.6 6 12.7 11.4 15.7 14.1 3.1 2.7 4 3.2 4.5 2.6.5-.6.1-1-.5-1.6-1-.9-2.2-2.1-3.2-3.4-1.4-2-2.9-5.2.3-15.2 5.5-16.7 20.6-61 22.5-67.2zm-16.5 11.3l-9.7 26.4c-.1.3-.4.4-.8.1L197 745.2c-.3-.3-.2-.6.1-.9l25-12.9c.3-.3.9-.5 1.1-.3.3.3 0 .8-.1 1.2zM392.2 869.5c1.1-2.4 4.6-5 8.9-3 3.5 1.6 5.1 5.1 3.5 8.5-1.6 3.3-5.3 5-9.2 3.2-4.2-2-4.5-6-3.2-8.7M374.1 805.6c-7-15.7-24.4-22.3-37.4-27.3-6.2-2.4-12.9-4.6-16.1-5.8-2.9-1.1-9.3-4-14.9-6.1-1.6-.6-2.4-.7-2.6 0-.3.7.3 1.1 1.4 1.6 1.5.5 3.2 1.3 3.9 1.8 3.2 2 3.4 3.9 2.3 7.4-1 3.2-2.1 6-7.9 21.1l-6.7 17.5c-3.5 9.1-6.5 16.9-8.7 20.9-1.5 2.7-2.9 4.7-5.1 4.3-1-.2-2.3-.4-3.9-1.1-1.3-.5-1.8-.3-2 .2-.3.7.3 1.3 1.7 1.8 2.1.8 4.9 1.7 7.3 2.6 2.5.9 4.8 1.8 6 2.2 2.6 1 6.1 2.7 10 4.5 3.8 1.8 8 3.8 11.7 5.2 19.3 7.4 32.8 4.5 39.3 1.7 8-3.4 17.2-10.8 22-23.3 4.6-11.9 2.9-22-.3-29.2zm-14.7 26.6c-3.9 10.2-9.5 18.4-18.3 21.3-8.2 2.7-16.1 2-26.7-2.1-8.2-3.2-11.5-6.8-12.1-9.2-.4-1.4.9-5.5 1.8-8 .6-1.9 3.4-9.6 7.5-20.1l4.8-12.5c3-7.8 6.3-16.4 7.7-19.8.4-1.1.9-1.4 2-1.5 1-.1 4.9 1.1 7 1.9 8.1 3.1 19.5 8.9 25.7 21.3 3.1 5.9 5.5 16.1.6 28.7zM491.5 832.4c-.3-5.7-.5-10.2-.7-13.8-.1-2.5-.2-3.8-1.8-3.7-2.1.1-10.2 4.6-12.5 5.7-.6.2-1.1.4-1.5.5-.3 0-.9-.5-.9-1.1 0-.6.5-1.2 1-1.5.5-.3 20.9-14.6 24.6-17.5 1-.7 1.9-1.5 2.8-1.5 1 0 1.4 1.1 1.4 2.1.1.8-.1 11.3.8 27.3l1 19.4c.5 10 1 19 1.7 23.6.5 3.3 1.1 4.9 4.7 5.4 1.7.2 6.4.3 7.3.3.4 0 1 .2 1 1 0 .7-.5 1-1.7 1-8.4.4-15.4.5-18.4.7-2.6.2-11.8.9-18.8 1.3-1.3.1-1.9-.1-1.9-.8 0-.8.4-1.1.8-1.1 1.2-.1 6.8-.7 8.8-1.2 3.4-.9 4-2.4 4.1-5.8.2-4.6-.1-13.6-.7-23.6M597.6 836.9c-3.9-12.5-17.5-15-26.2-16.4 5.1-3.9 13-12.9 9.7-23.4-3.1-9.8-13.6-12.6-26.4-8.5-17.9 5.6-21.7 18.2-19.2 26 2.7 8.5 10.9 11.9 21 13.5-8.9 7.1-15.8 17.4-12.3 28.6 3.9 12.3 17 16.2 32.6 11.3 17.6-5.6 24.5-19.3 20.8-31.1zm-51.9-27.8c-1.8-5.6 0-13 9.1-15.9 6.3-2 13 .7 15.4 8.3 3.2 10.1-2.8 16.3-5.5 18.5-11.2-2.1-17-4.7-19-10.9zm30.4 54c-8.5 2.7-17.5-1.9-20.3-10.8-3.2-10.2 1.6-18.5 6.3-23.4 11 2.2 20.9 4.3 24.1 14.3 2.9 9.2-1.9 17.3-10.1 19.9zM621.1 822.6c-9.9-17.9-5.6-45.4 11-64.9.7-.8 1.3-1.5 1.8-1.7.6-.4 1.3-.4 1.6.2.4.8-.6 2.2-1.3 3.3-7.9 12.3-13.1 34.6-1 56.6 6 10.8 17.2 19.6 27 14.2 6.7-3.7 9.5-11.5 3.7-22.1-7.1-12.8-17.4-14.4-23.8-10.9-2.4 1.3-3.5 2.3-4.7 3.4-.7.6-1.4 1.4-1.8 1.7-.4.2-.9.2-1.3-.5-.3-.7-.1-1.3.3-2 1.8-3.5 5.4-7.3 10.7-10.2 13.6-7.5 25.5-.4 30 7.8 7.9 14.2 1.9 29.8-12.2 37.5-14.8 8.2-30.8 4.3-40-12.4M693.1 756.9c-3.6-4.4-6.4-8-8.6-10.7-1.6-2-2.4-2.9-3.7-1.9-1.7 1.3-5.5 9.7-6.8 12-.3.5-.6 1-.9 1.3-.2.2-1 .2-1.4-.3-.4-.5-.3-1.2-.1-1.8.2-.4 8.4-24.1 9.7-28.6.4-1.1.7-2.3 1.4-2.9.8-.6 1.8.1 2.4.9.5.7 6.5 9.2 16.7 21.7l12.2 15.1c6.3 7.8 12 14.8 15.2 18.1 2.3 2.4 3.8 3.3 7 1.7 1.5-.8 5.4-3.5 6.1-4.1.3-.3 1-.4 1.4.2.5.5.2 1.1-.8 1.8-6.5 5.2-12.2 9.4-14.5 11.3-2 1.6-9 7.7-14.5 12.1-1 .8-1.6 1-2 .4-.5-.6-.3-1.1 0-1.4 1-.8 5.1-4.5 6.4-6.1 2.3-2.8 1.8-4.2 0-7.1-2.6-3.9-8-11-14.4-18.7M48.4 514.2c-6.3 2.8-7.6 4.9-8.8 9.3-.4 1.8-.5 3.8-.5 4.7 0 1.1-.3 1.5-1 1.5-.9 0-1.1-1.3-1-3.1 0-6.5.3-13.4.3-17.6 0-3-.4-8.9-.4-15 0-1.5.2-2.8 1.1-2.8.8 0 1 .7 1 1.8 0 1.9.1 3.8.8 4.7.6.8 1.4 1.2 2.4 1.2 1.5 0 4.7-1.1 8.9-2.8l52.5-21.1v-.5c-12.7-5.2-50-20.9-57.7-23.8-1.5-.6-3.2-1.1-4.3-1.1-.9 0-1.9.5-2.2 1.6-.5 1.5-.6 3.3-.6 4.9 0 1.1-.1 2.1-.9 2.1-.9 0-1.1-1.1-1.1-3.4 0-6.1.3-11.2.3-12.8 0-2.1-.4-7.8-.4-11.4 0-1.6.2-2.6 1-2.6s1.1.7 1 2c0 1.2 0 3.8 1.4 5.9 1 1.6 3 3.4 10.4 6.7 10.9 4.7 17.2 8 31.4 14.5 16.9 7.7 29.6 13.4 35.4 16.1 6.8 3.1 8.6 3.9 8.6 5.5s-1.6 2.3-7.1 4.6M138.7 348.1c-.8-.1-1 .4-1.2 1.4-.3 1.4-.7 3.2-1.4 4.9-1 2.4-3.3 5.6-14.4 8.2-18.8 4.3-68.8 14.5-75.7 16.2-2.8.7-4 1.2-4.2 2.3-.2 1.2.9 2.2 3.9 4.2l65.7 43.7c5.2 3.5 8.7 6.5 8.3 12.1-.1 1-.3 2.7-.5 3.8-.2 1 0 1.5.6 1.6.9.2 1.3-.5 1.6-2.1 1.2-6.2 2.1-12.8 2.4-14.2.7-3.7 2-8.8 2.8-12.6.2-1.3.2-2.1-.8-2.2-.7-.1-1 .2-1.2 1.6l-.4 1.8c-.7 3.7-2.4 4.5-4.4 4.1-1.4-.2-4-1.4-6.6-3.1l-15-9.6c-.6-.4-.8-.7-.7-1.3l5.1-26.6c.1-.6.4-.9 1.1-1.1l25.9-4.9c1.5-.4 2.3.7 2.4 1.6-.1 1.2 0 1.7.7 1.9.8.2 1.1-1.3 1.6-3.4 2-9.5 3.7-18.2 4.6-22.5.8-4.5.7-5.6-.2-5.8zm-42.3 35.4l-4.2 22c-.1.5-.5.5-.9.3l-25.9-16.4c-.4-.2-1-.6-.9-.9.1-.4.6-.4 1.1-.4l30.2-5.4c.4 0 .8.2.6.8zM144.6 336.7c-1.6 1.4-2.3 1.5-4.5.4-5.8-2.8-11.8-6.2-13.4-7.1-1.5-.9-2.5-1.8-2.1-2.6.5-1 1.5-.6 2.3-.2 1.3.6 3.8 1.3 5.8 1.6 8.9 1.3 14.8-3.8 18.1-10.6 4.8-9.9.7-17.8-4.8-20.4-5.1-2.5-10.7-3.1-21.9 2.7l-6.2 3.2c-14.8 7.7-24.1 8.4-32.6 4.3-11.5-5.5-14.8-19.6-7.5-34.8 3.4-7.1 6.7-11.2 8.8-13.7.7-.9 1.2-1.3 2-.9 1.4.6 4.2 2.6 12.3 6.5 2.3 1.1 3 1.8 2.5 2.7-.4.8-1.1.8-2.4.2-.9-.5-4.4-1.5-8.2-.5-2.8.7-7.4 2.4-10.9 9.5-3.9 8.1-1.8 15.2 4.5 18.2 4.8 2.3 9.7 1.6 20.6-4.4l3.7-2c15.9-8.7 25.3-9.9 35.3-5.2 6 2.9 12.1 8.8 13.2 19.1.7 7.1-1.3 13.7-4.1 19.5-3.1 6.2-6.2 10.7-10.5 14.5M178.4 270.2c-1.9 1-2.5.9-4.5-.7-4.9-4.1-9.9-8.9-11.3-10.2-1.2-1.2-2-2.3-1.4-3.1.7-.8 1.6-.2 2.3.3 1.2 1 3.3 2.1 5.3 2.9 8.3 3.4 15.3-.1 20.1-5.9 7-8.4 5-17 .3-21-4.4-3.6-9.6-5.6-21.9-2.7l-6.8 1.6c-16.2 3.9-25.4 2.3-32.6-3.7-9.8-8.2-9.7-22.6 1.1-35.6 5.1-6.1 9.2-9.2 11.9-11.2.9-.7 1.5-.9 2.2-.4 1.1 1 3.4 3.5 10.4 9.3 1.9 1.6 2.4 2.5 1.8 3.3-.5.7-1.3.5-2.4-.4-.8-.7-3.9-2.5-7.9-2.4-2.9 0-7.8.5-12.8 6.5-5.8 6.9-5.4 14.3-.1 18.8 4.1 3.4 9 3.9 21.1.8l4-1.1c17.5-4.6 27-3.5 35.5 3.6 5.1 4.3 9.6 11.5 8.2 21.7-1 7-4.6 12.9-8.7 17.9-4.7 5.4-8.8 9-13.8 11.7M293.1 163.6c-.5-.6-1.1-.4-1.8.2-1.2.9-2.7 1.9-4.3 2.7-2.4 1.1-6.2 1.9-16.2-3.6-16.9-9.3-60.9-35.2-67.1-38.5-2.6-1.4-3.8-1.8-4.7-1.1-1 .7-.8 2.2.1 5.7l19.7 76.4c1.6 6.1 2.1 10.6-1.9 14.6-.7.7-2 1.8-2.9 2.5-.8.6-1 1-.6 1.6.6.7 1.3.5 2.6-.5 5-3.8 10.1-8.1 11.2-8.9 3-2.3 7.4-5.2 10.5-7.5 1.1-.8 1.5-1.4 1-2.2-.4-.6-.9-.5-2 .4l-1.5 1.1c-3 2.3-4.8 1.8-6 .1-.8-1.1-2-3.7-2.8-6.7l-4.8-17.2c-.2-.7-.2-1 .3-1.4l21.6-16.4c.5-.4.9-.4 1.5-.1l22.6 13.7c1.3.8 1.3 2.1.8 2.8-.9.8-1.2 1.3-.7 1.9.5.7 1.7-.2 3.5-1.5 7.9-5.7 15-11.1 18.5-13.7 3.2-2.8 4-3.6 3.4-4.4zm-55-1.9l-17.8 13.5c-.4.3-.7.1-.9-.3l-8.3-29.5c-.2-.4-.3-1.1 0-1.3.3-.2.7.2 1.1.5l26 16.2c.2.2.4.5-.1.9zM393.2 123.2c-.2-.5-.8-.7-1.7-.3-.9.4-2 .6-3.3.9-1.8.3-6.8 1.4-15.5-2.4-9.3-4.1-20.8-10.7-35.6-18.9 8.1-13.3 8.7-22 5.7-30-2.8-7.2-9.5-11-13.4-11.8-7.7-1.6-15.5.6-22.7 3.4-3.5 1.4-12 5-15.9 6.5-2.4.9-9.7 3.3-15.6 5.7-1.7.7-2.4 1.2-2.1 1.9.3.8 1.1.7 2.3.2 1.6-.6 3.6-1.3 4.6-1.4 4-.7 5.6.7 7.2 4.3 1.6 3.4 2.7 6.4 9.1 22.8l7.3 19c3.8 9.9 7.1 18.5 8.3 23.2.7 3.3 1.1 5.9-1 7.2-.9.6-2.2 1.4-3.9 2-1.4.5-1.7 1-1.5 1.6.3.8 1.2.8 2.7.2 4.5-1.7 11.6-4.8 13.7-5.7 1.7-.6 10.2-3.5 16.8-6.1 1.5-.6 2.2-1.2 1.9-2-.2-.5-.8-.7-1.7-.3-1.4.5-3.9 1.3-5.7 1.7-3.5.9-5.2-1.2-6.7-4.2-2.3-4.3-5.6-12.9-9.5-22.9l-.6-1.5c-.3-.7 0-1 .6-1.2l9.9-3.6c.8-.3 1.5-.5 2.3 0 2.1 1.1 10.2 6.4 17 10.6 9.6 5.9 15.8 9.3 21.7 9.9 3.5.4 6.6-.2 12.9-2.6l10.8-4.2c1.2-.6 1.9-1.1 1.6-2zM331 101.8c-1.5 2.2-2.8 3.2-7.4 4.9-2.8 1.1-6.4 2.1-9 2.3-.9 0-1.3-.4-1.8-1.6l-12.7-32.8c-.3-.9-.3-1.4.4-1.9 1-.8 3-1.7 5.9-2.8 6.7-2.6 19.1-2.3 25 13.1 3.4 8.9 2.1 15.1-.4 18.8zM453.8 109.7c-11.4-10.5-13.9-23.6-13.3-34.9.4-7.9 3.7-21.4 15.8-31 9.1-7.2 20.9-11.2 39.1-10.3 7.5.4 12 1.1 17.5 2.1 4.6.8 8.4 2 12.1 2.6 1.3.2 1.8.8 1.8 1.5 0 .9-.5 2.3-.9 6.3-.4 3.8-.6 10.2-1 12.5-.2 1.7-.5 2.7-1.6 2.6-1 0-1.2-1-1.1-2.6.1-3.6-1.3-7.7-4.2-10.9-3.8-4.2-13.1-7.9-24.3-8.4-10.6-.5-17.6 1.7-23.2 6-9.3 7.3-12.1 18.2-12.7 29.4-1.4 27.5 19.9 42.3 36.2 43.1 10.8.6 17.4-.3 22.5-5.3 2.2-2.1 4-5.4 4.5-7.4.5-1.8.7-2.3 1.7-2.2.9.1 1 .9 1 1.8-.1 1.4-2 11.4-3.4 15.3-.7 1.9-1.2 2.5-3.4 3.2-4.9 1.6-14.2 1.9-22 1.6-16.7-1.1-30.5-5.3-41.1-15M617.3 62.7c-33.7-14.1-56.3 4.1-63.9 22.4-7.9 18.9-4.6 47.3 27.6 60.9 28.5 12 54.5.2 64.8-24.3 10.3-24.4-.6-47.2-28.5-59zm11.2 56.4c-13 30.9-32.7 26.8-40.5 23.5-21.5-9-27-32.1-17.7-54.3C581.4 61.7 599 61 611.9 66.5c18.4 7.7 26.6 28.6 16.6 52.6zM679.1 160.3c-9 11.8-13.8 18.2-13 21.4.6 2.6 2.7 5.2 10.2 10.9 5.1 3.9 9 6.6 13.3 6 2-.3 5.2-2 6.7-3.6.7-.8 1.4-1.2 2.1-.6.6.5.4 1.1-.4 2.2-.8 1-6.7 7.4-9.5 9.5-2.1 1.6-2.9 1.7-8-2.1-7-5.3-11.9-9.3-16.2-12.7-4.3-3.5-7.7-6.2-11.6-9.2-1.1-.8-3.2-2.4-5.6-4.1-2.2-1.7-4.9-3.4-6.8-4.9-1.2-1-1.7-1.7-1.2-2.4.4-.5.9-.4 2.1.4 1.4 1.1 2.7 1.8 3.7 2.3 2.2 1.1 4.3-.6 6.7-2.9 3.4-3.5 8.9-10.8 15.4-19.3l12.3-16.2c10.6-14 12.6-16.6 14.7-19.7 2.1-3.3 2.5-5.4-.2-8.4-.6-.8-1.7-1.7-3-2.7-1.1-.8-1.5-1.5-1-2.1.5-.6 1.3-.3 2.7.8 4.6 3.4 10.5 8.4 13.1 10.4 2.4 1.8 9.6 6.8 13.4 9.7 1.3 1 1.9 1.7 1.4 2.4-.5.6-1.2.4-2.3-.5-1.1-.8-2.7-1.9-4-2.6-3-1.5-5-.5-7.6 2.6-2.4 2.8-4.4 5.4-15 19.4M745.6 223.7c-11.4 9.5-17.6 14.6-17.5 17.9 0 2.7 1.4 5.6 7.4 13 4.1 5 7.2 8.5 11.6 8.9 2.1.2 5.5-.8 7.4-2 .9-.6 1.6-.8 2.2-.1.6.6.2 1.1-.9 2-1 .8-8.2 5.7-11.4 7.1-2.4 1-3.3 1-7.3-3.9-5.6-6.7-9.5-11.8-12.9-16.1-3.3-4.3-6-7.8-9.2-11.6-.9-1-2.5-3.1-4.5-5.3-1.8-2.2-4-4.5-5.5-6.3-1-1.2-1.3-2.1-.7-2.6.5-.3 1-.2 2 .9 1.2 1.4 2.3 2.4 3.1 3.1 1.9 1.6 4.3.4 7.2-1.4 4.2-2.6 11.2-8.5 19.4-15.3l15.7-13c13.5-11.2 16-13.3 18.7-15.9 2.9-2.7 3.7-4.6 1.8-8.2-.4-.9-1.3-2.1-2.3-3.3-.9-1-1.1-1.8-.5-2.3.6-.5 1.3 0 2.5 1.4 3.7 4.4 8.3 10.5 10.4 13 1.9 2.2 7.8 8.9 10.8 12.5 1.1 1.3 1.4 2.1.9 2.6-.6.5-1.3.1-2.2-1-.8-1-2.2-2.4-3.3-3.4-2.5-2.2-4.7-1.6-7.9.8-3 2.2-5.5 4.2-19.1 15.5M804.1 269.5c15.7-8.1 18.5-9.6 21.7-11.5 3.4-2 4.6-3.7 3.4-7.7-.2-1-1-2.9-1.8-4.4-.6-1.2-.7-1.9 0-2.3.7-.4 1.4.3 2.2 1.9 1.5 2.9 3 6.1 4.4 8.8 1.3 2.9 2.5 5.4 3.3 6.9 1.8 3.5 12.9 25 14 27 1.3 2 2.4 3.6 3 4.3.4.5 1 1 1.3 1.5.3.5-.1.9-.6 1.1-.7.4-2.2.5-7.1 2.6-1.1.4-5.7 2.5-7.1 3-.6.2-1.3.3-1.7-.5-.4-.8 0-1.2 1-1.7.7-.4 2.4-1.4 3.4-2.6 1.4-1.7 2.1-3.4-.1-9.2-.8-2-6.4-13.4-7.5-15.6-.3-.5-.7-.6-1.4-.2l-26.1 13.4c-.7.4-1.1.7-.7 1.3 1.2 2.4 7.6 14.8 9.1 17.2 1.5 2.5 2.7 4 4.2 4.4 1.2.3 1.9.5 2.2 1 .2.4.2.9-.4 1.2-.6.3-2.5.8-8 3-2.1 1-6.4 2.8-7.1 3.1-.8.4-2 1-2.5.1-.4-.8-.1-1.2.4-1.5 1-.6 2.3-1.3 3.5-2.4 1.8-1.6 2.5-3.9.9-8.1-.9-2.2-6.3-12.9-7.6-15.5-.3-.5-.8-.4-1.3-.1l-8.1 4.2c-3.5 1.8-13 6.6-16 8.2-7 3.9-7.6 6.4-1.9 17.4 1.4 2.8 3.8 7.3 6.4 9.5 2.7 2.2 5.5 2.4 10.1 1 1.2-.4 1.8-.4 2.1.4.4.9-.4 1.3-1.4 1.8-2.4 1.2-9.8 4-12.1 4.5-3.1.6-3.6-.3-5.7-4.4-4.2-8.1-7-14.2-9.3-18.9-2.2-4.8-3.8-8.2-5.5-11.4-.6-1.2-1.8-3.6-3.3-6.1-1.3-2.5-2.9-5.2-4-7.3-.7-1.4-.8-2.3 0-2.7.5-.3 1 0 1.7 1.3.8 1.6 1.7 2.8 2.4 3.7 1.5 1.9 4.1 1.3 7.3.2 4.6-1.7 12.7-5.9 22.2-10.8M805.9 430c-3.1.4-3.3.4-4.3-1-5.1-7.2-8-18.8-9.4-28.2-4.3-29.5 5.2-57.5 36.8-62.1 18.3-2.7 32.6 5.4 40.5 15.5 8.4 10.6 10.7 21.2 12.2 31.3 1.2 8.3 1.4 19.1 1.2 21.6-.1 2.6-.2 6.9.1 9.7.1 1.5-.3 1.8-1.1 1.9-1.3.2-4.6-.2-18.9 1.9-1.8.3-2.4 0-2.6-1-.1-.8.4-1.2 1.3-1.4 2.6-.7 6.2-1.9 9-5.5 3.1-4.1 7-14.5 5-28.1-1-6.6-2.7-15.4-10.6-22.8-6.4-6-15.6-9-29.7-7-24.7 3.6-40.7 22.8-37 48.1.5 3.1 1.1 7.3 2.7 10.1 1.1 1.7 2.6 1.9 4.6 1.7l10.8-1.6c5.7-.8 10.1-1.5 13.5-2.1 3.9-.7 5.6-2 5.8-6.1.1-1-.1-3.1-.3-4.7-.2-1.1 0-1.8.6-1.9.9-.1 1.3.7 1.5 2.4.9 6.2 1.7 13.9 2.2 17.5.5 3.7 1.8 10 2.4 14 .2 1.6.1 2.5-.8 2.6-.7.1-1-.6-1.1-1.4-.1-1-.4-1.8-.8-3.2-1.1-3.2-3.2-4.1-7.2-3.6-3.5.4-8.1 1-13.8 1.9M854.6 461.8c17.6.4 20.9.5 24.6.3 3.9-.1 5.8-1 6.7-5 .3-1 .4-3 .5-4.7 0-1.3.3-2.1 1.1-2 .8 0 1 .9 1 2.7-.1 3.3-.3 6.8-.3 9.8-.2 3.2-.4 5.9-.4 7.7-.1 3.9-.7 28.1-.6 30.4.1 2.3.3 4.2.6 5.2.1.6.4 1.4.4 1.9 0 .6-.5.7-1 .7-.8 0-2.2-.6-7.5-1.1-1.2-.2-6.2-.6-7.6-.8-.5-.2-1.3-.4-1.3-1.3.1-.9.6-1.1 1.6-1.1.8 0 2.8-.1 4.2-.6 2.1-.8 3.5-2 4.4-8 .2-2 .8-14.8.8-17.3 0-.6-.3-.9-1.1-.9l-29.3-.7c-.8 0-1.3.1-1.3.8 0 2.7-.4 16.6-.2 19.4.2 2.9.5 4.8 1.6 5.9.9.9 1.5 1.4 1.5 2 0 .5-.2.9-.9.8-.7-.1-2.6-.6-8.5-1.2-2.3-.2-6.9-.6-7.8-.7-.9 0-2.2 0-2.1-1.1 0-.9.4-1.1 1-1.1 1.2-.1 2.7-.1 4.2-.4 2.3-.5 4.1-2.2 4.7-6.7.3-2.3.7-14.4.7-17.3 0-.6-.4-.7-1.1-.8l-9.1-.2c-3.9-.1-14.6-.5-18-.4-8 0-9.8 1.9-10.1 14.3-.1 3.2-.2 8.3 1.1 11.4 1.3 3.2 3.7 4.7 8.4 5.7 1.3.2 1.7.5 1.7 1.3 0 1-.9 1-2.1 1-2.6-.1-10.5-1.2-12.8-1.9-3-.9-3-2-2.9-6.6.2-9.1.6-15.8.9-21.1.4-5.2.6-9 .6-12.6 0-1.3.1-4 .1-6.9.1-2.8-.1-5.9 0-8.4.1-1.5.4-2.4 1.2-2.4.6 0 .9.5.9 2 0 1.8.2 3.3.4 4.3.4 2.5 2.9 3.1 6.3 3.7 4.9.7 14 .9 24.6 1.2M237.9 813.5c1.1-2.4 4.6-5 8.9-3 3.5 1.6 5.1 5.1 3.5 8.5-1.6 3.3-5.3 5-9.2 3.2-4.2-2-4.5-6-3.2-8.7M136.192 625l-8.785 19.73-19.732-8.783 8.785-19.732zM805.21 616.08l8.785 19.732-19.732 8.785-8.784-19.732z"/><path d="M472.4 228.4c4.5-7.7-6.4-21.1.9-30.8 5.3-1 12.5-.6 17.8 1.9l.2-2.6c-3.3-4.8-9.7-1.7-14.7-2.7-13.6 5.9-4.4 21.4-7.2 31.7-2.5 2.4-4.7-2-6.9.6 1.6.7 6.1 2.8 9.9 1.9zm124 491.9c-38.7-10.2-56.8 32.3-85.9 42.2-25.7 6.7-62.6-1.5-78.8-18.4-3.5-1-9.3-1.8-12.5 1 3.8 6.6 14.5 13.1 21 16.3.7 4.9-4.2 8-10.5 10.1 10.3 1 20.7 1.6 31.2 1.6 32 0 62.8-4.8 91.9-13.8-2.1-5.8.8-13.8 4.6-17 7.6-6.1 15.3-23.7 27.4-13.8 2.5 2.2-2.7 7.6-5.5 9.6-1.3.9-3.4 2.2-4.4 2.9 4.9 4.9 12.5 0 18.4-2.8 4.9-2.8 10.3-6.9 10.7-10.7-.3-2.7-4.6-6.7-7.6-7.2zM473.2 205.5l5.4 3.5c4.4 1 8.2-1.2 11.1-2.6-3.6-5.8-13.7-5.4-16.5-.9zm-20.1 30.6l3.8 2.1c3.5 2.6 12.8 3 16.4-2.6-3.4-2.4-16.7-3.4-20.2.5zm-46.4 503c9.6-13.3 28.2-23.3 34.4-38.1 2.2-44.1-6.2-82.9-13.2-124.8-.7 24.6 8.5 85.9 2.5 109.3-1.2 22.8-32.5 46.9-31 60.2 1.1 6.8 12.8 10.4 17.9 13-3.3-4.3-13.2-11.6-10.6-19.6zm-25.7-9.9c-17-.7-34.1 13.2-51.2 15 12.3 5.7 25 10.7 38.2 14.8 1.6-11 28.3-17.6 13-29.8zm74.8-523.1c.8-2.7-4.4-5.5-7.8-5.5-4.2 0-7.2 2.8-10.2 5.5 5.6-1 12.4 4.5 18 0zM287.3 599.6c-1 29.9 4.8 66.9-16 80.9-9 6.7-15.6 10-20.8 10.6 8.8 8.1 18.1 15.7 27.7 22.7 13.9-33.9 18.3-76 10.7-112.7l-1.6-1.5zm127.4-77.4c-16 7.5-23.7 20.5-32.5 32.5-9.7 22.2 5.1 42.5 7.2 64 .9 13 1.7 26 7.2 37.5 2.5-44-14-98.7 18.1-134zm149.1 107c-11.4-5.5-2.3-18.3-7.5-26.8-5.4 10.1-5.9 22.4-6.6 34.5-.8 4.9 1.8 8.5 6.6 9.1 12.9-8.3 23.2-19.9 29.1-31.7-6.9 5.9-12.1 15.4-21.6 14.9zM476 148.9c8.7 1.8 15.7 4.6 16.1 7l-4.5 3.4c7.2.6 9.4.4 12.2 6.2-1 .4-.8 1.8-.8 2.6-.4-1.1-.3 1.7-.7 2.9 4.3 3.1 9.7 6.6 9.7 12.2-1 9.1 11.8 23.8 0 27.8 2.3 5.1-.1 13-3.4 18-1.3 1.9-8 6.9-10.8 6.5 2.5-7.4 2.7-26.1 8.4-34.1-6.3-5.1-1.4-16.6-4.8-19-9.5-10.2-21.2-14.1-29.4-26.4-4.1 15.2-20.6 9-33.4 23.8 3.1.9 1.9 6.4-1.3 8.6-5.5 5.9-3 13.1-11.3 16.1 4.2 2.6 2.4 8.4 2.4 12-.1 2.6-2.5 2.7-3.5 6.2l-.6-.7-1.8 4.3c-9-6.9 3.2-14.2-.6-21.9-2.1 1.8-2.4 6.2-5.9 6.2-2.8-6.2 1-11.8 3.5-16.9 1-2.6 4.5-1.8 4.2-5.1l-1.7-1.8c-.4 3.7-3.2.4-4.2-1.1.4-9.2 10.5-9.2 15.1-14.7-1.8-3.3-4.5 2.6-4.9-1.8-.7-4.1 3.5-7.3 7.3-8.8 2.1 0 4.1.4 5.2-1.9-4.4-7.2 8.2-5.6 12.3-9.7-166.3 6.4-299.2 143.6-299.2 312 0 84 33.1 160.3 86.9 216.4.6-10.7 12.2-21.7 20.6-37.5 5.1-11.8 9.6-29.4 10.4-41.2-7.1 13-9.4 25.6-23 41.3 0 0-5.5 8.2-14.9 6.8-.8-.2-16-3.7 6.3-33.1 32.9-41.2 37.3-105.2 93.7-125.6.8-.3 1.7.4 1.6 1.3l-1.8 10.6c-.2 1.1.6 2 1.7 2.1l80 4.5 2.5-.3-3 8.4c11.1-5.6 16.8-26.1 27.2-34.8 6.2-4.9 13.8-5.5 19-12.4 8.7 4.5 16.6 12.1 26.8 10.7 13-13.2 25.6-2.8 40.7-5.9 14.3 19.3 8.9 48.5-1.8 67.4 5.9 4.3 6.7 11.8 4.9 18.4-3.4 10.7-8.2 21.7-17.2 30.4-20.2 1.8-32.7-15.1-47.6-25.6l-.5.8c32.7 34.8 68.5 69.8 68.8 118.9 9.3-2.6 7.7-19.2 22.6-11.8 5.6 1.5-4.8 17.5-5.5 18.3 4.9 8.9 13.7-10.9 19.6-9.1 24.3.3 40.6 20.8 53.2 38.9l4.9 7c88.2-55.1 146.9-153.3 146.9-265.2-.4-167.1-131.7-303.7-296.6-311.6zm-31.8 47.9c6.4-1 12.1 1.8 17.1.8-2.8-5.6-10.7-5.6-16.3-4.2l-9.8 4.2c4.5-10.7 7-18.8 21.2-21.3 5.3-5.5 13.9-12.3 19.7-5.4l6.9 4.5 9.6 10.4 1 11.3s.3 2.8-3.5 9.3c5.6 9.8-5.1 39.1-20 46.7-7.8 2.1-16.1-2.8-22.5-4.2 4.1 7.3 14.8 11.7 22.5 14.1 6.1 1 15.3 2.3 22.9 1-2.8 15.3-18.8 35.9-30.3 38.7-8.9 2.4-19.6 0-26.8-4.4-7.4-5.4-17.7-21.7-12.4-23.9l10.5-7.1c.9-23.5-19.1-58 10.2-70.5zM420 228l1.2-3.3 2.9 1.9c3.5 2.3-1.4 6 2.3 8.8-1.4 1.2-7.9-3.9-6.4-7.4zM265.3 526.2c-4.4-2.7-12.4-2.7-16.8 0-17.5 9.8-26.3 31-32.1 46.7-3 1.8-6.9 2.2-8.1-1.9-5.8-2.5-1.8-8.1-1.8-10.5 15.6-17.3 29.9-36.7 41.3-56.4-7-12.7-24.8-3.3-33.3-14.6-4.3-9.8-8.6-22.2-15.7-29.9 13.5-6.9 30.7 1.5 38.3 15 4.4 8.5 5.1 18.7 11.3 26.3 4-2.2 7.7-7.3 9.8-11.3 0 0 2.9-2.3 3.9-4.4-2.4 0-6.8.1-6.4-2.9 1.5-4 8.1 1.1 8.8-4.3-3.2-1.5-14 1.8-11.4-5.5l12.5-1.1c-2.2-.6-12.7-1.5-9.8-5.1 4.8-2.6 13.7.1 17.3-3.1l4.6 9.7c-7.7 16.7-19.4 32.1-30.7 46.4 0 1.4-.3 3.5 1.5 3.5 16-2.5 12.7-25.7 31.7-23.2l9.8.8c-3.7 10.9-10.2 23.9-24.7 25.8zm64-52.7c-23 19.2-32.6 18-52.6 14.4-.7-5 2.6-8 4.4-13.8 4 1.5 13.3 2.6 17.1-2.6-12.9 2.9-13.7-10.1-21.2-13.3 0 0-21.8 4.7-21.6-3.7 2 .6 11.7-2.9 11.7-2.9 20-6.5 35.8 18.5 54 2l14.2-8.4c.9 10.4-4.1 19-6 28.3zm76.4 22c-22.4 1.3-45.8-1.8-68.7-1.8 2.8-25.1 6-50.3 7.9-75 8.9 2.5 14.2-10.4 21.3-12.9 17.8 2.9 28.9-16.2 47-6.8-1.1 32.6-7.5 63.1-7.5 96.5zm7.3-104.3c-7.3 1.1-13.1-5.1-20.1-2.6-14.2 12.4-39.8 2.6-47.5 25.6l-6.9 3.2c-4-12 6.2-24.4 11.3-35.8 41.7-25.6 84.7 1.4 125.2 10.5 7.8 1.9 6.7-8.8 10-13.1l12-44.3c15.2-4.7 25.3 11.7 32.1 25.5-6.4 28.1-12.1 45.4-34.8 67.6-24.8-1.1-33.9-5.7-55.1-15.8 4.1-11.9-19.6-18.6-26.2-20.8zm13.3 9.5c-5.1 29.9-4.3 64.4-10.5 94.7h-4.4c1.1-31.3 4.7-63.7 7.3-95.3 2.9-.8 4.7 1.6 7.6.6zm98.3 50.3c-3.1 4-3.7 10.1-8.3 13.1-17.7-8.8-40.2 10.1-53.5-10.6-5.4 4.9-11.5 12.5-20.3 8.5-4.3-3.1-8.8 2.5-10-4.2 0-9.7-4.8-33.1 1.8-40.1 5.8 2.3 18.3 9.8 25.9 12.1 13.1 5 21.8 8 41.5 6.5 10.1.8 9.9-9.8 15.8-18.3 1.7-5.4 6.8-14 11.7-17.3 14 14.7-1.8 34.1-4.6 50.3zm106.9 160.9c-4.1 13.4-13.1 60.7-29.3 65.4-25.8 1.5-53.1-12.9-61.6-24.6-24.2-42.5-.7-88.2-1.8-133.6 13.6-18.8-.8-40.9-1.1-61.1 7.7-14.6 11.1-31.7 25-42.9l5.9-.7c9.5 22 4.6 49.5-2.3 71.7 4.4-2.1 10.8-13.5 18.5-7.2 3.9 8 6.9 17.8.5 25.7-5.1 4.6-10 15.7-8.2 16 13.9-11.4 25-25.3 20.1-43.6-10.8-52.3-37.5-90.9-62.6-137.3-5.4-6.9-14.6-16-24.1-15l-18.7 3.2c.4-11.1 8.5-30.5 11.5-42.7-10 13.3-13.2 22.5-17.6 38.7-.7 2.4-1 5-.9 7.5.2 8-.3 28.3-9 42.6-4.1 5.9-12 8.5-17.7 6.2-27.2-10-57.2-8.3-56.9-28.6l-1.7-29.3c-5.9 13.6-7.1 29.2-7.9 42-7.8.9-10.5 2.3-18.6 2.7-.3-14 13.6-17.4 9-30.4 2.4-6.9 7.7-11.5 4.9-18.4-9.4 25.3-37.6 24.3-55.8 37.6-1 7.7-4.1 14.3-9.4 20.2 19.8-6.2 30.6-34.5 55.3-34.5-6.7 13.6-3.1 21.1-35.1 34.5-7.3-2.7-14.9.4-20.2 4.2-7 8.7-13.3 19.2-17.4 30 9-1.8 9-16.7 19.2-18.5 8.7-.6 3.9.4 12.3-1.7-10.6 10.6-5.3 16.6-8.8 20.2-8.1 4.8-16.8-6.7-22.7 3.5l-16.1 30.7c3.9 2.1 7.7-1.1 10.8-2.5 3.9-11.2 10-16.2 19-21.5 6.3-.4 8.5 1.2 12.4 3.3-5.1 9.1-1.8 10.6-11.5 15.1-10.8 5.9-13.2 1.7-31.8 9.7-3.7-2.5-9-.8-11.2-1.2-13.6-11.6-26.6 9-41 4.7-6.9-3.8-14.3-7.6-22.7-8.4 2.8-4.5 9-13.5 16.7-16 6.3-.7 12.2-2.1 18.4 1 6.3 6.6 14 15.3 22.4 11.5-5-5.8-4.8-10.8-8-16-10.5-.4-17.2-12.2-25.5-16.3-8-7.1-7.3-17.8-8.4-27.6 10.1-.4 18.4 3.5 25.1 11.5 16.4 15.1 6 37.6 22.7 51.9 9-3.8 12.5-14.3 16.7-22.7.3-10.7 14.6-24 1-32.3-2.8 0-5.9-.8-7.7 1.4-21.2 2.7-32.1-17.1-42.5-31.8 16.8-1 36.6 0 46 16.1l12.6 19.2c.3-5.7 2.4-15.1 0-22.7-5.6-10.2-18.5-15.1-20.2-26.9l5.9-31.7c17.8 18.2 26.4 43.9 17.4 68.7l1 12.6c9.4-17.5 27.6-35.3 19.2-58-11.8-4.1-18.4-17-20.9-28.2 5.2-11.5-2.2-22.3 1.7-34.5 16.7 15.3 27.2 36.6 19.9 58.6-1.1 4.9 4.1 7 5.2 11.1 9.1-14.3 27.9-27.4 15.7-47-5.9-4.9-12.2-9.4-14.3-16.7-2.1-12.5 6.6-20.9 5.9-33.5 8.7 8.4 20.6 16.7 20.2 29.2 4.5 14.7-12.2 21.4-5.3 35.9 5.9-2.4 8.4-9.7 11.8-15-1.7-18.8 4.2-36.9 19.2-50.2 1 10.8 5.7 24.5-.6 34.5-13.9 8-17.1 23.3-28.6 34.1-5.3 11.8-14.3 22.7-21.6 32.8v3.1c8 3.5 12.9-5.1 16.7-10.8 2.1-7 5.6-13.9 11.5-18.4 7.1-4.2 16.7-.8 22.7-6.7-3.1-.6-6.2-2.5-10.1-1.7 13.3-12.6 25.5-25.1 42.5-34.1 2.5 7.6 6.2 14 10.4 19.8 9.4 10.1 25.1 15.4 37.6 10.5 18.8-7.6 25.3-25.9 32.8-45.2 44.1 2 51.7 50.7 70.2 80.7 20.1 47.1 41.4 93.8 49.2 145.8-2.3 30.6-37.1 40.2-55.9 58.5 4.1 2.5 6.7-3.9 10.8-4.1 11.1-2.1 18.5 5.6 25.7 12.6 8.6 17.8 6.1 21 6.2 47.2-1.6 36.9-7.1 43.7-10.3 55.6 0 0 16.2.8 24.5-61.1-.5-23.9 10.3-60-13.8-73.3l5.1-4.1c33 17.6 27 58 22.4 91zM564 311.7l45.2-22.3 45.4 22.3H564zM722.6 419h-43.2l.2-58.1h31.1c.1-3-.3-5 0-6.7h-38.9l.1 64.9h-41.3v-57.9c12.5 0 21.1 0 31.6-.1.1-1.2 0-5.1 0-6.9h-39.4l.2 64.8h-9.7c-.1-3.6-9.3-23.9-18.5-45.1 0 0-.1-7.7-.8-12.4 6.8 0 6.2-.1 20.5-.2v-7.1h-26.4l-.1 9.9c-2.4-5.8-3.2-9.9-6.9-17.5h142.6v7.7H722l.6 64.7zm-107.8 15.6l-3.6-11.1h118.7c0 .1.2 4.1.2 10.9l-115.3.2zm115.3-93.2H578.7l-2.4-6.6h153.8v6.6zm-156.2-15.5c-.8-1.9-2.9-5.9-5.1-8.8 40.5-.3 62.3.5 102.3.5v-2.9l-62.7-33c-19.9 8.3-27.1 13.1-44.3 21.8l-4.2-8c19.3-10.4 31.9-17.8 52.2-27.4l-7.2-3.8c-20.7 9.4-30.3 14.9-48.7 24.3-1.1-1.8-2.2-3.3-5.2-7 23.1-12 31.2-17 53.1-27.8 42.3 22.1 86.8 45.4 128.8 70.3l-.8 1.9H573.9z"/></svg>