<svg width="169" height="194" viewBox="0 0 169 194" fill="none" xmlns="http://www.w3.org/2000/svg">
<g clip-path="url(#clip0_3_266)">
<path d="M133.762 180.851L76.352 192.314L18.7032 180.73V58.4116L133.762 58.5311V180.851Z" fill="white"/>
<path d="M19.8958 179.753L76.352 191.096L132.57 179.754V59.607L19.8958 59.6056V179.753ZM76.3507 193.531L17.5091 181.708V57.2164L134.955 57.2191V181.707L76.3507 193.531Z" fill="#063C40"/>
<path d="M104.5 147.271V145.679H129.417V133.928H22.7675V145.679H47.2279V147.271H22.7675V177.325L76.0942 187.763L129.417 177.325V147.271H104.5Z" fill="#063C40"/>
<path d="M58.6824 150.265C56.0133 150.265 54.7784 148.466 54.7784 146.458C54.7784 144.453 56.0681 142.654 58.7261 142.654C59.6967 142.654 60.4467 142.863 61.0431 143.261L60.1383 144.783C59.7407 144.551 59.3446 144.386 58.6934 144.386C57.6131 144.386 57.0059 145.213 57.0059 146.393C57.0059 147.629 57.579 148.521 58.7151 148.521C59.5102 148.521 59.9283 148.235 60.2711 148.003L61.1085 149.459C60.7344 149.79 59.7858 150.265 58.6824 150.265Z" fill="white"/>
<path d="M62.5496 150.132H64.6673V142.786H62.5496V150.132Z" fill="white"/>
<path d="M70.1792 144.497V150.132H68.0722V144.497H66.0984V142.787H72.1531V144.497H70.1792Z" fill="white"/>
<path d="M77.6361 147.364V150.133H75.5294V147.364L73.114 142.787H75.4417L76.6766 145.423H76.6879L77.9118 142.787H79.9531L77.6361 147.364Z" fill="white"/>
<path d="M86.9278 144.332C85.6595 144.332 85.1746 145.27 85.1746 146.404C85.1746 147.563 85.6488 148.588 86.8837 148.588C88.1517 148.588 88.5822 147.607 88.5822 146.47C88.5822 145.324 88.1737 144.332 86.9278 144.332ZM86.9278 150.266C84.3134 150.266 82.9453 148.424 82.9453 146.47C82.9453 144.497 84.2697 142.654 86.8837 142.654C89.5091 142.654 90.7991 144.464 90.7991 146.404C90.7991 148.38 89.5528 150.266 86.9278 150.266Z" fill="white"/>
<path d="M94.637 144.497V145.853H96.777V147.441H94.637V150.132H92.5303V142.787H97.0414V144.497H94.637Z" fill="white"/>
<path d="M35.9752 158.104H34.8318V166.267H36.0877C38.7114 166.267 39.9449 164.831 39.9449 162.095C39.9449 159.316 38.7114 158.104 35.9752 158.104ZM35.7518 169.652H30.5482V154.717H35.886C41.7394 154.717 44.4739 157.655 44.4739 161.962C44.4739 166.267 41.6723 169.652 35.7518 169.652Z" fill="white"/>
<path d="M46.4315 169.653V154.719H55.8051V158.193H50.648V160.437H55.2004V163.666H50.648V166.177H55.9627V169.653H46.4315Z" fill="white"/>
<path d="M66.1204 158.193V169.653H61.8364V158.193H57.823V154.717H70.1341V158.193H66.1204Z" fill="white"/>
<path d="M77.7583 157.879H76.5478V161.221H77.8942C79.1498 161.221 79.7545 160.592 79.7545 159.561C79.7545 158.44 79.1715 157.879 77.7583 157.879ZM80.629 169.652L78.0945 165.392C77.3993 164.225 77.1759 164.092 76.7055 164.092H76.5478V169.652H72.2642V154.717H77.983C81.7951 154.717 83.9489 156.265 83.9489 159.269C83.9489 161.693 82.4218 162.88 81.0334 163.374V163.417C81.5266 163.777 82.1534 164.473 82.9164 165.772L85.2265 169.652H80.629Z" fill="white"/>
<path d="M93.4609 157.857C90.8824 157.857 89.8956 159.763 89.8956 162.073C89.8956 164.428 90.8603 166.514 93.3718 166.514C95.95 166.514 96.8245 164.518 96.8245 162.208C96.8245 159.875 95.9954 157.857 93.4609 157.857ZM93.4609 169.922C88.1475 169.922 85.3663 166.177 85.3663 162.208C85.3663 158.193 88.056 154.449 93.3718 154.449C98.7096 154.449 101.333 158.126 101.333 162.073C101.333 166.088 98.7987 169.922 93.4609 169.922Z" fill="white"/>
<path d="M103.224 169.653H107.529V154.719H103.224V169.653Z" fill="white"/>
<path d="M118.097 158.193V169.653H113.813V158.193H109.8V154.717H122.11V158.193H118.097Z" fill="white"/>
<path d="M22.7675 132.233H129.417V62.8009H22.7675V132.233Z" fill="#9EDCA8"/>
<path d="M146.252 30.8068L134.952 36.886L120.364 61.1423L95.2059 43.799L80.6439 46.9204L80.3792 32.3432C80.3792 32.3432 67.2362 27.3413 67.0648 27.0946C66.5578 27.3606 55.4269 33.1699 55.028 33.6576L53.0183 40.4296L58.1792 46.3721L57.5914 52.8477L60.7248 52.9765L62.3685 54.8078L50.3207 61.2397L33.4076 81.1423L10.1206 73.8386L3.91349 66.9025L0.00012207 66.6023L5.55868 77.0036L37.557 91.5588L57.9968 70.8598L67.8433 81.3984L65.8326 92.9093L64.8717 93.5932C59.3883 96.8938 31.7368 113.671 29.0033 117.993L27.4186 122.144L33.2994 132.235H119.222L125.093 122.144L123.512 117.993C121.662 115.072 108.44 106.464 98.3671 100.17L89.6939 95.1409L98.1792 64.2595L123.655 72.7049L138.745 41.4576L148.512 35.5946L152.197 31.4126L146.252 30.8068Z" fill="#3CAA94"/>
<path d="M168.999 19.3345L168.843 18.9287L145.45 27.192C145.658 27.6291 145.824 28.0896 145.943 28.5698L168.999 19.3345Z" fill="#3CAA94"/>
<path d="M127.344 0.141966L126.934 0.294104L135.203 23.688C135.639 23.4811 136.097 23.3166 136.575 23.1975L127.344 0.141966Z" fill="#3CAA94"/>
<path d="M108.148 41.7936L108.252 42.0762L131.693 33.9347C131.484 33.4976 131.319 33.0413 131.2 32.5615L108.148 41.7936Z" fill="#3CAA94"/>
<path d="M109.007 17.2316L108.836 17.6305L131.312 28.1474C131.458 27.6759 131.653 27.2275 131.885 26.8027L109.007 17.2316Z" fill="#3CAA94"/>
<path d="M151.906 1.00275L151.573 0.856127L151.507 0.823441L140.988 23.3056C141.458 23.4522 141.906 23.6453 142.332 23.879L151.906 1.00275Z" fill="#3CAA94"/>
<path d="M104.237 115.512L96.9154 114.913L102.378 110.55L107.178 114.077L112.029 123.426L104.237 115.512ZM57.9793 128.318L57.9517 128.329L52.459 130.348C52.459 130.348 55.4898 125.017 55.5022 124.986L62.8865 121.335L57.9793 128.318ZM35.2063 124.692L62.6865 111.045V117.385L48.8838 123.543L35.2063 124.692ZM98.3671 100.17L91.2403 115.969L73.5514 121.561L80.4384 114.701L68.8097 119.299L68.8153 110.614L81.2623 102.723L65.7476 109.078V104.235L84.9646 96.1786L70.2288 100.402L70.226 97.4916L64.8717 93.5918C59.3883 96.8927 31.7367 113.67 29.0032 117.993L27.4187 122.143L33.2979 132.233H119.222L125.093 122.143L123.511 117.993C121.662 115.072 108.44 106.462 98.3671 100.17Z" fill="#063C40"/>
<path d="M8.88965 56.3419H11.3996C11.3996 56.3419 11.3405 59.9801 11.357 60.6117L8.88965 56.3419Z" fill="#063C40"/>
<path d="M15.7257 61.733H13.2131C13.2131 61.733 13.2734 58.0965 13.2584 57.4645L15.7257 61.733Z" fill="#063C40"/>
<path d="M115.909 66.3704L98.4504 57.9346L91.2086 74.5583L76.732 71.9935L69.3993 74.9503L69.3567 74.9162L59.4021 67.3533L59.546 67.2807L77.8942 58.2843L78.9512 53.4001L79.0087 53.385L97.1074 48.9558L117.931 63.237L115.909 66.3704ZM79.0331 87.4944L76.8659 93.3371H74.8648L76.9044 87.6589V83.9907L77.9324 83.038L78.626 85.7095L87.9118 85.1341L79.0331 87.4944ZM58.4425 42.4953L55.4375 39.6018L59.2813 40.8381L65.7913 39.7361L65.8244 39.7595L67.4444 40.9204L69.6833 40.6709L70.6084 41.3671L69.1894 42.169L72.2752 42.4131L68.8456 44.3119L64.9839 41.47C64.9839 41.47 58.4591 42.4981 58.4425 42.4953ZM75.9817 46.4461L73.3745 51.8414L73.8203 46.6254L70.8783 46.0844L74.0051 44.8202L75.9817 46.4461ZM10.7046 74.021L9.52839 63.8441L11.9162 74.402L10.7046 74.021ZM146.252 30.8068L134.952 36.886L120.364 61.1423L95.2073 43.799L80.6456 46.9204L80.3806 32.3432C80.3806 32.3432 67.2362 27.341 67.0662 27.0946C66.5578 27.3606 55.4269 33.1699 55.029 33.6576L53.0183 40.4296L58.1792 46.3717L57.5914 52.8474L60.7248 52.9765L62.3699 54.8078L50.3221 61.2398L33.4076 81.142L13.3557 74.8529C13.3501 72.687 13.342 69.2903 13.331 63.4163H9.4789L8.99248 59.2026H6.83213V70.1635L3.91377 66.9025L0.00012207 66.602L5.56002 77.0036L13.3022 80.5252L13.3694 80.8216C13.3694 80.7297 13.3694 80.6419 13.3694 80.5555L37.5584 91.5588L57.9968 70.8598L67.8433 81.3984L65.8296 92.9351L72.4177 96.1649L90.9756 90.3308L98.1806 64.2582L123.655 72.7049L138.746 41.4576L148.512 35.5946L152.197 31.4112L146.252 30.8068Z" fill="#063C40"/>
</g>
<defs>
<clipPath id="clip0_3_266">
<rect width="169" height="193.388" fill="white" transform="translate(0 0.143005)"/>
</clipPath>
</defs>
</svg>
